Coordinates
version=1
nRows=21
nColumns=33
inDegrees=yes

Units are S.I. units (second, meters, Newtons, ...)
Angles are in degrees.

endheader
time	ground_thorax_rot_x	ground_thorax_rot_y	ground_thorax_rot_z	ground_thorax_tx	ground_thorax_ty	ground_thorax_tz	clav_prot_r	clav_elev_r	scapula_abduction_r	scapula_elevation_r	scapula_upward_rot_r	scapula_winging_r	shoulder_elv_r	plane_of_elev_r	axial_rot_r	elbow_flexion_r	pro_sup_r	wrist_flex_r	wrist_dev_r	clav_prot_l	clav_elev_l	scapula_abduction_l	scapula_elevation_l	scapula_upward_rot_l	scapula_winging_l	shoulder_elv_l	plane_of_elev_l	axial_rot_l	elbow_flexion_l	pro_sup_l	wrist_flex_l	wrist_dev_l
      2.12000000	     19.38981655	     34.62461535	     19.47933509	     -0.01008419	      1.01832322	     -0.05353412	    -12.83731771	     37.75575487	    -12.48997069	     29.07011933	     45.00000000	     -6.84078821	      6.71038071	    -90.00000000	     38.52796109	     77.57263407	    -12.68082990	     32.53314047	    -16.59183190	     16.99028217	     -7.42781387	    -45.00000000	      2.92753987	     12.18399686	     19.99456458	     12.59022006	    -60.75439694	    -31.81592209	     66.41590141	     14.77715040	      9.85992543	    -21.29390475
      2.13000000	     19.40953441	     34.66029331	     19.48511657	     -0.01002910	      1.01825156	     -0.05349805	    -12.83648295	     37.74791819	    -12.47219113	     29.06210840	     45.00000000	     -6.84257347	      6.72028087	    -90.00000000	     38.51806203	     77.57380210	    -12.68163695	     32.53176760	    -16.59329842	     16.98977024	     -7.42378512	    -45.00000000	      2.92497212	     12.18556017	     19.99463818	     12.59445358	    -60.76045379	    -31.81824885	     66.41489941	     14.77639850	      9.85929674	    -21.28876714
      2.14000000	     19.42687889	     34.70420118	     19.49019327	     -0.00998236	      1.01820551	     -0.05349925	    -12.83161151	     37.74146429	    -12.44520382	     29.05630408	     45.00000000	     -6.84648426	      6.73423739	    -90.00000000	     38.50410673	     77.56936066	    -12.68389688	     32.52900412	    -16.59556015	     16.98836612	     -7.42282881	    -45.00000000	      2.92553750	     12.19013692	     19.99571250	     12.59796355	    -60.76283055	    -31.82422321	     66.41847163	     14.77506150	      9.85828912	    -21.28438160
      2.15000000	     19.44081694	     34.75363249	     19.49725895	     -0.00996051	      1.01816414	     -0.05353919	    -12.82212238	     37.73562133	    -12.40788728	     29.05125745	     45.00000000	     -6.84750447	      6.75192623	    -90.00000000	     38.48641940	     77.55771581	    -12.68785408	     32.52403016	    -16.59837774	     16.98512227	     -7.42626425	    -45.00000000	      2.93176344	     12.20215889	     19.99179403	     12.60142746	    -60.75506034	    -31.83534779	     66.42922487	     14.77269171	      9.85651263	    -21.28068885
      2.16000000	     19.63406975	     34.86849490	     19.22669364	     -0.01038613	      1.01852198	     -0.05383675	    -12.81160912	     37.66413198	    -12.23382495	     28.98022211	     45.00000000	     -6.89115930	      6.79314951	    -90.00000000	     38.44529467	     77.38659170	    -12.74942232	     32.38811669	    -16.57157187	     16.92280354	     -7.72827893	    -45.00000000	      3.23732131	     12.45760237	     19.82348458	     12.75224952	    -60.67134703	    -32.37629321	     66.43692717	     14.69621480	      9.77680108	    -20.99191924
      2.17000000	     19.63525960	     34.87542467	     19.23168589	     -0.01006639	      1.01841266	     -0.05382147	    -12.81147870	     37.66233385	    -12.22862078	     28.97856842	     45.00000000	     -6.89044378	      6.79591240	    -90.00000000	     38.44253187	     77.38750514	    -12.74975883	     32.38829246	    -16.57184166	     16.92229023	     -7.72864298	    -45.00000000	      3.23791521	     12.45991956	     19.82354881	     12.75381862	    -60.66934849	    -32.37585258	     66.43881006	     14.69565750	      9.77611133	    -20.99182430
      2.18000000	     19.60666653	     34.96391784	     19.27314780	     -0.01025138	      1.01833597	     -0.05399388	    -12.79347997	     37.65798446	    -12.16598278	     28.97472555	     45.00000000	     -6.89347083	      6.83401798	    -90.00000000	     38.40443014	     77.38489541	    -12.75834791	     32.38519059	    -16.57577061	     16.91025949	     -7.74104686	    -45.00000000	      3.25854461	     12.49922997	     19.81294829	     12.77031624	    -60.62704665	    -32.38486698	     66.48709569	     14.68298744	      9.76335570	    -20.98989427
      2.19000000	     19.60502333	     35.01750345	     19.29805109	     -0.01015016	      1.01824879	     -0.05402274	    -12.78505399	     37.64652027	    -12.12793037	     28.96454240	     45.00000000	     -6.89667214	      6.84708515	    -90.00000000	     38.39136473	     77.38451618	    -12.76202472	     32.38192329	    -16.57458201	     16.90732837	     -7.75074433	    -45.00000000	      3.27105348	     12.51716688	     19.80582920	     12.77570566	    -60.60554285	    -32.39427597	     66.50593268	     14.67732951	      9.75893389	    -20.98678961
      2.20000000	     19.56612065	     35.08123161	     19.33033756	     -0.01019505	      1.01814876	     -0.05419814	    -12.77065956	     37.63969720	    -12.07166969	     28.95876270	     45.00000000	     -6.90179014	      6.86456114	    -90.00000000	     38.37389108	     77.37925490	    -12.76846532	     32.37498879	    -16.57271784	     16.89688867	     -7.77959173	    -45.00000000	      3.30339240	     12.55338043	     19.78950314	     12.78074893	    -60.54868281	    -32.40852050	     66.53470614	     14.66888604	      9.75360102	    -20.98154805
      2.21000000	     19.54195672	     35.33578163	     18.97114586	     -0.01042672	      1.01872323	     -0.05408368	    -13.02794025	     37.33453633	    -12.16504854	     28.63529765	     45.00000000	     -7.09628580	      6.96937248	    -90.00000000	     38.26941345	     77.23259090	    -13.19440865	     31.96331940	    -16.28111773	     16.86218975	     -8.20725830	    -45.00000000	      3.68869957	     12.73070025	     19.55901343	     13.65266061	    -60.54727077	    -33.41710696	     66.95194196	     14.05913125	      9.62663034	    -19.98700298
      2.22000000	     19.52273428	     35.39012112	     19.02135129	     -0.01032723	      1.01857325	     -0.05407912	    -13.01336369	     37.32977825	    -12.11518912	     28.63154287	     45.00000000	     -7.09737700	      6.98407708	    -90.00000000	     38.25471036	     77.24888280	    -13.19634573	     31.96813470	    -16.28025016	     16.85637822	     -8.21703759	    -45.00000000	      3.70254833	     12.75337679	     19.55491471	     13.66306959	    -60.50887135	    -33.41181477	     66.96016849	     14.05276138	      9.62359263	    -19.98417025
      2.23000000	     19.46481449	     35.45397278	     19.07789384	     -0.01035737	      1.01842733	     -0.05424628	    -12.99441974	     37.32445045	    -12.05565797	     28.62768001	     45.00000000	     -7.09945184	      6.99990137	    -90.00000000	     38.23888801	     77.26295410	    -13.20034955	     31.96953842	    -16.27788439	     16.84717937	     -8.24164207	    -45.00000000	      3.73039636	     12.78513282	     19.53783701	     13.66414240	    -60.43824403	    -33.40791370	     66.97596180	     14.04384444	      9.62207740	    -19.97910804
      2.24000000	     19.40040339	     35.60860003	     19.15455244	     -0.01056193	      1.01876013	     -0.05443391	    -12.99686088	     37.27142201	    -11.95906771	     28.57505670	     45.00000000	     -7.13014253	      6.93111925	    -90.00000000	     38.30770958	     77.04678323	    -13.27701893	     31.83841494	    -16.21465005	     16.86110661	     -8.34987474	    -45.00000000	      3.80762261	     12.75287149	     19.48697406	     13.67565651	    -60.21268347	    -33.41401934	     66.81827374	     13.96909422	      9.69996846	    -19.79782531
      2.25000000	     19.37017781	     35.66738054	     19.21289517	     -0.01045780	      1.01861343	     -0.05447535	    -12.99001885	     37.25571075	    -11.90617129	     28.55946534	     45.00000000	     -7.13851837	      6.96220606	    -90.00000000	     38.27662395	     77.06974420	    -13.28333222	     31.84049396	    -16.21472640	     16.85560395	     -8.36187306	    -45.00000000	      3.82339773	     12.77706521	     19.48141034	     13.67917015	    -60.16017392	    -33.40455775	     66.84217859	     13.95958863	      9.70124870	    -19.79350313
      2.26000000	     19.30198634	     35.72658877	     19.27955892	     -0.01051117	      1.01844254	     -0.05461466	    -12.97899066	     37.24069804	    -11.85001506	     28.54595626	     45.00000000	     -7.14602810	      6.99431154	    -90.00000000	     38.24451987	     77.08947484	    -13.29230372	     31.83741244	    -16.21320961	     16.84375708	     -8.38755410	    -45.00000000	      3.85472996	     12.81838058	     19.46353208	     13.68391653	    -60.06935065	    -33.38770693	     66.87190010	     13.94728483	      9.70336176	    -19.78527364
      2.27000000	     19.19304287	     35.79501528	     18.94805384	     -0.01084711	      1.01876535	     -0.05474785	    -13.18053268	     36.88868887	    -11.71613740	     28.18327077	     45.00000000	     -7.35871765	      7.11157405	    -90.00000000	     38.12745787	     77.12834070	    -13.86824121	     31.15322269	    -15.76626438	     16.95836216	     -8.37039396	    -45.00000000	      3.73715140	     12.42306343	     19.51348325	     14.01230470	    -59.25792211	    -33.00642166	     66.94744772	     13.35283583	     10.52569007	    -18.79055414
      2.28000000	     19.13202384	     35.86740555	     19.03320676	     -0.01084031	      1.01859447	     -0.05490261	    -13.16186577	     36.88549332	    -11.66145082	     28.18166816	     45.00000000	     -7.36065857	      7.13787515	    -90.00000000	     38.10116007	     77.14090739	    -13.88000478	     31.15139492	    -15.76355238	     16.94851726	     -8.40233356	    -45.00000000	      3.77233109	     12.46041656	     19.49452016	     14.01371146	    -59.17349676	    -33.00388398	     66.96884313	     13.33904338	     10.53103158	    -18.78569686
      2.29000000	     19.04642043	     36.07445361	     19.17514489	     -0.01099104	      1.01892365	     -0.05501559	    -13.18628726	     36.84886419	    -11.65636663	     28.14354527	     45.00000000	     -7.38206651	      7.11067386	    -90.00000000	     38.12839763	     76.97337887	    -14.00072423	     30.99188453	    -15.68832000	     16.96584568	     -8.54189610	    -45.00000000	      3.87286644	     12.42154493	     19.42750852	     14.03293501	    -58.94391660	    -32.99287612	     66.78768350	     13.25513303	     10.66231508	    -18.60907069
      2.30000000	     18.98089508	     36.13383337	     19.25346685	     -0.01097761	      1.01871412	     -0.05516868	    -13.17417684	     36.83242447	    -11.59371179	     28.12832072	     45.00000000	     -7.39098736	      7.15340485	    -90.00000000	     38.08566896	     77.00585441	    -14.01544433	     30.98848546	    -15.68515680	     16.95606588	     -8.57069287	    -45.00000000	      3.90555940	     12.45888395	     19.40993057	     14.03378636	    -58.84829735	    -32.98046855	     66.82249779	     13.23874812	     10.67173493	    -18.60108958
      2.31000000	     18.88781912	     36.31935739	     19.25785286	     -0.01126199	      1.01919276	     -0.05521595	    -13.26532506	     36.67925773	    -11.54985845	     27.97122816	     45.00000000	     -7.48285885	      7.17135683	    -90.00000000	     38.06775774	     76.86617850	    -14.23287915	     30.68185236	    -15.53978109	     16.98921317	     -8.72844631	    -45.00000000	      4.00655459	     12.36688868	     19.33924154	     14.11047948	    -58.44003353	    -32.83212411	     66.58436100	     13.08584948	     10.93292308	    -18.25694634
      2.32000000	     18.81771846	     36.37440153	     19.33686171	     -0.01123460	      1.01893987	     -0.05542722	    -13.25146765	     36.66156889	    -11.47758297	     27.95443259	     45.00000000	     -7.49161359	      7.22160673	    -90.00000000	     38.01751027	     76.90705748	    -14.25134497	     30.67601593	    -15.53486726	     16.97781189	     -8.75578446	    -45.00000000	      4.03821723	     12.40447705	     19.32090016	     14.10417108	    -58.32867586	    -32.81872286	     66.64192778	     13.06435637	     10.94858140	    -18.24958743
